<svg xmlns="http://www.w3.org/2000/svg" xmlns:xlink="http://www.w3.org/1999/xlink" width="871" zoomAndPan="magnify" viewBox="0 0 653.25 168.749997" height="225" preserveAspectRatio="xMidYMid meet" version="1.0"><defs><g/><clipPath id="d59f35c01a"><path d="M 0.109375 27.757812 L 261.472656 27.757812 L 261.472656 167.800781 L 0.109375 167.800781 Z M 0.109375 27.757812 " clip-rule="nonzero"/></clipPath><clipPath id="f4b8327cab"><rect x="0" width="359" y="0" height="93"/></clipPath><clipPath id="f853d63c04"><rect x="0" width="279" y="0" height="47"/></clipPath></defs><g clip-path="url(#d59f35c01a)"><path fill="#ffd166" d="M 251.644531 109.589844 C 245.816406 103.765625 237.898438 100.050781 229.164062 99.628906 C 228.882812 99.597656 228.621094 99.542969 228.34375 99.542969 L 47.457031 99.542969 C 43.253906 99.542969 39.417969 97.816406 36.644531 95.042969 C 33.855469 92.269531 32.144531 88.433594 32.144531 84.230469 C 32.144531 80.027344 33.871094 76.191406 36.644531 73.417969 C 39.417969 70.644531 43.253906 68.917969 47.457031 68.917969 L 229.300781 68.917969 C 232.214844 68.917969 234.585938 66.546875 234.585938 63.636719 C 234.585938 63.53125 234.570312 63.441406 234.550781 63.339844 C 234.550781 63.09375 234.515625 62.832031 234.480469 62.589844 C 234.480469 62.554688 234.464844 62.535156 234.464844 62.5 C 234.429688 62.34375 234.394531 62.1875 234.34375 62.046875 L 224.679688 34.597656 C 223.441406 31.074219 221.628906 27.832031 217.933594 27.832031 L 63.605469 27.832031 C 44.808594 27.832031 39.941406 38.085938 38.425781 41.46875 L 24.976562 71.484375 C 22.832031 75.25 21.59375 79.574219 21.59375 84.214844 C 21.59375 91.328125 24.507812 97.816406 29.199219 102.492188 C 33.890625 107.183594 40.359375 110.09375 47.476562 110.09375 L 227.507812 110.09375 C 233.992188 110.09375 239.90625 112.746094 244.195312 117.035156 C 248.484375 121.324219 251.136719 127.21875 251.136719 133.726562 C 251.136719 140.214844 248.484375 146.125 244.195312 150.414062 C 239.90625 154.707031 233.992188 157.355469 227.507812 157.355469 L 12.839844 157.355469 L 14.21875 153.46875 L 226.738281 153.46875 C 226.773438 153.46875 226.824219 153.46875 226.859375 153.46875 C 226.894531 153.46875 226.949219 153.46875 226.984375 153.46875 C 237.777344 153.46875 246.566406 144.679688 246.566406 133.898438 C 246.566406 123.105469 237.777344 114.316406 226.984375 114.316406 C 224.070312 114.316406 221.699219 116.667969 221.699219 119.597656 C 221.699219 122.511719 224.054688 124.882812 226.984375 124.882812 C 231.953125 124.882812 236 128.929688 236 133.898438 C 236 138.871094 231.953125 142.917969 226.984375 142.917969 C 226.929688 142.917969 226.894531 142.917969 226.84375 142.917969 C 226.792969 142.917969 226.757812 142.917969 226.703125 142.917969 L 10.539062 142.917969 C 10.519531 142.917969 10.503906 142.917969 10.484375 142.917969 C 8.304688 142.898438 6.246094 144.257812 5.480469 146.4375 L 0.40625 160.898438 C 0.371094 161.019531 0.351562 161.140625 0.316406 161.261719 C 0.28125 161.421875 0.230469 161.578125 0.195312 161.75 C 0.160156 161.960938 0.144531 162.167969 0.144531 162.378906 C 0.144531 162.464844 0.109375 162.570312 0.109375 162.65625 C 0.109375 162.710938 0.125 162.746094 0.125 162.78125 C 0.125 162.988281 0.160156 163.214844 0.195312 163.425781 C 0.214844 163.566406 0.230469 163.703125 0.265625 163.828125 C 0.316406 164.019531 0.371094 164.191406 0.441406 164.382812 C 0.492188 164.523438 0.527344 164.664062 0.597656 164.804688 C 0.667969 164.976562 0.769531 165.132812 0.875 165.292969 C 0.945312 165.414062 1.015625 165.554688 1.101562 165.675781 C 1.207031 165.832031 1.347656 165.972656 1.46875 166.109375 C 1.554688 166.214844 1.660156 166.339844 1.765625 166.441406 C 1.90625 166.566406 2.042969 166.6875 2.203125 166.808594 C 2.324219 166.894531 2.445312 167 2.585938 167.085938 C 2.726562 167.175781 2.882812 167.246094 3.019531 167.332031 C 3.179688 167.417969 3.351562 167.507812 3.527344 167.578125 C 3.578125 167.59375 3.613281 167.628906 3.667969 167.644531 C 3.824219 167.699219 3.964844 167.714844 4.101562 167.769531 C 4.207031 167.804688 4.3125 167.835938 4.433594 167.855469 C 4.765625 167.925781 5.097656 167.960938 5.410156 167.960938 L 227.507812 167.960938 C 236.921875 167.960938 245.46875 164.105469 251.660156 157.914062 C 257.851562 151.722656 261.707031 143.179688 261.707031 133.761719 C 261.6875 124.324219 257.832031 115.78125 251.644531 109.589844 Z M 251.644531 109.589844 " fill-opacity="1" fill-rule="nonzero"/></g><g transform="matrix(1, 0, 0, 1, 276, 20)"><g clip-path="url(#f4b8327cab)"><g fill="#1b3a57" fill-opacity="1"><g transform="translate(0.659101, 72.587262)"><g><path d="M 23.921875 1.0625 C 19.628906 1.0625 15.460938 0.53125 11.421875 -0.53125 C 7.390625 -1.59375 4.113281 -3.003906 1.59375 -4.765625 L 6.515625 -15.8125 C 8.878906 -14.25 11.625 -12.988281 14.75 -12.03125 C 17.882812 -11.070312 20.96875 -10.59375 24 -10.59375 C 29.75 -10.59375 32.625 -12.03125 32.625 -14.90625 C 32.625 -16.425781 31.800781 -17.550781 30.15625 -18.28125 C 28.519531 -19.007812 25.882812 -19.78125 22.25 -20.59375 C 18.257812 -21.445312 14.925781 -22.363281 12.25 -23.34375 C 9.582031 -24.332031 7.289062 -25.910156 5.375 -28.078125 C 3.457031 -30.242188 2.5 -33.171875 2.5 -36.859375 C 2.5 -40.085938 3.378906 -43 5.140625 -45.59375 C 6.910156 -48.195312 9.546875 -50.253906 13.046875 -51.765625 C 16.554688 -53.285156 20.859375 -54.046875 25.953125 -54.046875 C 29.441406 -54.046875 32.875 -53.648438 36.25 -52.859375 C 39.632812 -52.078125 42.613281 -50.929688 45.1875 -49.421875 L 40.5625 -38.296875 C 35.519531 -41.023438 30.628906 -42.390625 25.890625 -42.390625 C 22.910156 -42.390625 20.738281 -41.945312 19.375 -41.0625 C 18.007812 -40.175781 17.328125 -39.023438 17.328125 -37.609375 C 17.328125 -36.203125 18.132812 -35.144531 19.75 -34.4375 C 21.363281 -33.726562 23.960938 -33 27.546875 -32.25 C 31.585938 -31.382812 34.929688 -30.457031 37.578125 -29.46875 C 40.222656 -28.488281 42.515625 -26.925781 44.453125 -24.78125 C 46.398438 -22.644531 47.375 -19.734375 47.375 -16.046875 C 47.375 -12.867188 46.488281 -9.992188 44.71875 -7.421875 C 42.957031 -4.847656 40.3125 -2.789062 36.78125 -1.25 C 33.25 0.289062 28.960938 1.0625 23.921875 1.0625 Z M 23.921875 1.0625 "/></g></g></g><g fill="#1b3a57" fill-opacity="1"><g transform="translate(55.451598, 72.587262)"><g><path d="M 29.515625 -52.984375 C 34.304688 -52.984375 38.46875 -52.1875 42 -50.59375 C 45.53125 -49.007812 48.253906 -46.738281 50.171875 -43.78125 C 52.097656 -40.832031 53.0625 -37.363281 53.0625 -33.375 C 53.0625 -29.394531 52.097656 -25.941406 50.171875 -23.015625 C 48.253906 -20.085938 45.53125 -17.828125 42 -16.234375 C 38.46875 -14.640625 34.304688 -13.84375 29.515625 -13.84375 L 20.28125 -13.84375 L 20.28125 0 L 5.296875 0 L 5.296875 -52.984375 Z M 28.609375 -25.65625 C 31.691406 -25.65625 34.015625 -26.320312 35.578125 -27.65625 C 37.140625 -29 37.921875 -30.90625 37.921875 -33.375 C 37.921875 -35.851562 37.140625 -37.769531 35.578125 -39.125 C 34.015625 -40.488281 31.691406 -41.171875 28.609375 -41.171875 L 20.28125 -41.171875 L 20.28125 -25.65625 Z M 28.609375 -25.65625 "/></g></g></g><g fill="#1b3a57" fill-opacity="1"><g transform="translate(117.055245, 72.587262)"><g><path d="M 40.796875 -10.296875 L 18.390625 -10.296875 L 14.234375 0 L -1.0625 0 L 22.328125 -52.984375 L 37.09375 -52.984375 L 60.546875 0 L 44.953125 0 Z M 36.40625 -21.34375 L 29.59375 -38.296875 L 22.78125 -21.34375 Z M 36.40625 -21.34375 "/></g></g></g><g fill="#1b3a57" fill-opacity="1"><g transform="translate(182.367194, 72.587262)"><g><path d="M 23.921875 1.0625 C 19.628906 1.0625 15.460938 0.53125 11.421875 -0.53125 C 7.390625 -1.59375 4.113281 -3.003906 1.59375 -4.765625 L 6.515625 -15.8125 C 8.878906 -14.25 11.625 -12.988281 14.75 -12.03125 C 17.882812 -11.070312 20.96875 -10.59375 24 -10.59375 C 29.75 -10.59375 32.625 -12.03125 32.625 -14.90625 C 32.625 -16.425781 31.800781 -17.550781 30.15625 -18.28125 C 28.519531 -19.007812 25.882812 -19.78125 22.25 -20.59375 C 18.257812 -21.445312 14.925781 -22.363281 12.25 -23.34375 C 9.582031 -24.332031 7.289062 -25.910156 5.375 -28.078125 C 3.457031 -30.242188 2.5 -33.171875 2.5 -36.859375 C 2.5 -40.085938 3.378906 -43 5.140625 -45.59375 C 6.910156 -48.195312 9.546875 -50.253906 13.046875 -51.765625 C 16.554688 -53.285156 20.859375 -54.046875 25.953125 -54.046875 C 29.441406 -54.046875 32.875 -53.648438 36.25 -52.859375 C 39.632812 -52.078125 42.613281 -50.929688 45.1875 -49.421875 L 40.5625 -38.296875 C 35.519531 -41.023438 30.628906 -42.390625 25.890625 -42.390625 C 22.910156 -42.390625 20.738281 -41.945312 19.375 -41.0625 C 18.007812 -40.175781 17.328125 -39.023438 17.328125 -37.609375 C 17.328125 -36.203125 18.132812 -35.144531 19.75 -34.4375 C 21.363281 -33.726562 23.960938 -33 27.546875 -32.25 C 31.585938 -31.382812 34.929688 -30.457031 37.578125 -29.46875 C 40.222656 -28.488281 42.515625 -26.925781 44.453125 -24.78125 C 46.398438 -22.644531 47.375 -19.734375 47.375 -16.046875 C 47.375 -12.867188 46.488281 -9.992188 44.71875 -7.421875 C 42.957031 -4.847656 40.3125 -2.789062 36.78125 -1.25 C 33.25 0.289062 28.960938 1.0625 23.921875 1.0625 Z M 23.921875 1.0625 "/></g></g></g><g fill="#1b3a57" fill-opacity="1"><g transform="translate(237.159691, 72.587262)"><g><path d="M 23.921875 1.0625 C 19.628906 1.0625 15.460938 0.53125 11.421875 -0.53125 C 7.390625 -1.59375 4.113281 -3.003906 1.59375 -4.765625 L 6.515625 -15.8125 C 8.878906 -14.25 11.625 -12.988281 14.75 -12.03125 C 17.882812 -11.070312 20.96875 -10.59375 24 -10.59375 C 29.75 -10.59375 32.625 -12.03125 32.625 -14.90625 C 32.625 -16.425781 31.800781 -17.550781 30.15625 -18.28125 C 28.519531 -19.007812 25.882812 -19.78125 22.25 -20.59375 C 18.257812 -21.445312 14.925781 -22.363281 12.25 -23.34375 C 9.582031 -24.332031 7.289062 -25.910156 5.375 -28.078125 C 3.457031 -30.242188 2.5 -33.171875 2.5 -36.859375 C 2.5 -40.085938 3.378906 -43 5.140625 -45.59375 C 6.910156 -48.195312 9.546875 -50.253906 13.046875 -51.765625 C 16.554688 -53.285156 20.859375 -54.046875 25.953125 -54.046875 C 29.441406 -54.046875 32.875 -53.648438 36.25 -52.859375 C 39.632812 -52.078125 42.613281 -50.929688 45.1875 -49.421875 L 40.5625 -38.296875 C 35.519531 -41.023438 30.628906 -42.390625 25.890625 -42.390625 C 22.910156 -42.390625 20.738281 -41.945312 19.375 -41.0625 C 18.007812 -40.175781 17.328125 -39.023438 17.328125 -37.609375 C 17.328125 -36.203125 18.132812 -35.144531 19.75 -34.4375 C 21.363281 -33.726562 23.960938 -33 27.546875 -32.25 C 31.585938 -31.382812 34.929688 -30.457031 37.578125 -29.46875 C 40.222656 -28.488281 42.515625 -26.925781 44.453125 -24.78125 C 46.398438 -22.644531 47.375 -19.734375 47.375 -16.046875 C 47.375 -12.867188 46.488281 -9.992188 44.71875 -7.421875 C 42.957031 -4.847656 40.3125 -2.789062 36.78125 -1.25 C 33.25 0.289062 28.960938 1.0625 23.921875 1.0625 Z M 23.921875 1.0625 "/></g></g></g><g fill="#1b3a57" fill-opacity="1"><g transform="translate(291.952188, 72.587262)"><g><path d="M 29.75 1.0625 C 21.875 1.0625 15.753906 -1.082031 11.390625 -5.375 C 7.023438 -9.664062 4.84375 -15.742188 4.84375 -23.609375 L 4.84375 -52.984375 L 19.828125 -52.984375 L 19.828125 -24.0625 C 19.828125 -15.59375 23.179688 -11.359375 29.890625 -11.359375 C 36.554688 -11.359375 39.890625 -15.59375 39.890625 -24.0625 L 39.890625 -52.984375 L 54.640625 -52.984375 L 54.640625 -23.609375 C 54.640625 -15.742188 52.457031 -9.664062 48.09375 -5.375 C 43.726562 -1.082031 37.613281 1.0625 29.75 1.0625 Z M 29.75 1.0625 "/></g></g></g></g></g><g transform="matrix(1, 0, 0, 1, 318, 110)"><g clip-path="url(#f853d63c04)"><g fill="#1b3a57" fill-opacity="1"><g transform="translate(0.788667, 35.489022)"><g><path d="M 3.5 -26.109375 L 14.921875 -26.109375 C 17.703125 -26.109375 20.171875 -25.566406 22.328125 -24.484375 C 24.492188 -23.398438 26.175781 -21.867188 27.375 -19.890625 C 28.570312 -17.921875 29.171875 -15.640625 29.171875 -13.046875 C 29.171875 -10.460938 28.570312 -8.179688 27.375 -6.203125 C 26.175781 -4.234375 24.492188 -2.707031 22.328125 -1.625 C 20.171875 -0.539062 17.703125 0 14.921875 0 L 3.5 0 Z M 14.6875 -4.109375 C 16.601562 -4.109375 18.289062 -4.472656 19.75 -5.203125 C 21.207031 -5.929688 22.328125 -6.972656 23.109375 -8.328125 C 23.890625 -9.691406 24.28125 -11.265625 24.28125 -13.046875 C 24.28125 -14.835938 23.890625 -16.410156 23.109375 -17.765625 C 22.328125 -19.117188 21.207031 -20.160156 19.75 -20.890625 C 18.289062 -21.628906 16.601562 -22 14.6875 -22 L 8.359375 -22 L 8.359375 -4.109375 Z M 14.6875 -4.109375 "/></g></g></g><g fill="#1b3a57" fill-opacity="1"><g transform="translate(41.364463, 35.489022)"><g><path d="M 23.09375 -4.0625 L 23.09375 0 L 3.5 0 L 3.5 -26.109375 L 22.5625 -26.109375 L 22.5625 -22.046875 L 8.359375 -22.046875 L 8.359375 -15.25 L 20.953125 -15.25 L 20.953125 -11.265625 L 8.359375 -11.265625 L 8.359375 -4.0625 Z M 23.09375 -4.0625 "/></g></g></g><g fill="#1b3a57" fill-opacity="1"><g transform="translate(76.122856, 35.489022)"><g/></g></g><g fill="#1b3a57" fill-opacity="1"><g transform="translate(96.188572, 35.489022)"><g><path d="M 11.59375 0.375 C 9.582031 0.375 7.640625 0.0859375 5.765625 -0.484375 C 3.890625 -1.054688 2.40625 -1.816406 1.3125 -2.765625 L 2.984375 -6.53125 C 4.054688 -5.6875 5.367188 -4.992188 6.921875 -4.453125 C 8.472656 -3.921875 10.03125 -3.65625 11.59375 -3.65625 C 13.539062 -3.65625 14.988281 -3.960938 15.9375 -4.578125 C 16.894531 -5.203125 17.375 -6.023438 17.375 -7.046875 C 17.375 -7.796875 17.109375 -8.410156 16.578125 -8.890625 C 16.046875 -9.378906 15.367188 -9.757812 14.546875 -10.03125 C 13.722656 -10.300781 12.601562 -10.613281 11.1875 -10.96875 C 9.195312 -11.4375 7.585938 -11.90625 6.359375 -12.375 C 5.128906 -12.851562 4.070312 -13.59375 3.1875 -14.59375 C 2.300781 -15.601562 1.859375 -16.96875 1.859375 -18.6875 C 1.859375 -20.125 2.25 -21.429688 3.03125 -22.609375 C 3.820312 -23.796875 5.003906 -24.738281 6.578125 -25.4375 C 8.160156 -26.132812 10.09375 -26.484375 12.375 -26.484375 C 13.96875 -26.484375 15.535156 -26.28125 17.078125 -25.875 C 18.617188 -25.476562 19.953125 -24.910156 21.078125 -24.171875 L 19.546875 -20.40625 C 18.398438 -21.070312 17.203125 -21.578125 15.953125 -21.921875 C 14.710938 -22.273438 13.507812 -22.453125 12.34375 -22.453125 C 10.425781 -22.453125 9 -22.128906 8.0625 -21.484375 C 7.132812 -20.835938 6.671875 -19.976562 6.671875 -18.90625 C 6.671875 -18.164062 6.9375 -17.554688 7.46875 -17.078125 C 8.007812 -16.609375 8.6875 -16.234375 9.5 -15.953125 C 10.320312 -15.679688 11.445312 -15.375 12.875 -15.03125 C 14.8125 -14.582031 16.398438 -14.113281 17.640625 -13.625 C 18.878906 -13.144531 19.941406 -12.40625 20.828125 -11.40625 C 21.710938 -10.414062 22.15625 -9.078125 22.15625 -7.390625 C 22.15625 -5.941406 21.757812 -4.632812 20.96875 -3.46875 C 20.1875 -2.300781 19 -1.367188 17.40625 -0.671875 C 15.820312 0.0234375 13.882812 0.375 11.59375 0.375 Z M 11.59375 0.375 "/></g></g></g><g fill="#1b3a57" fill-opacity="1"><g transform="translate(129.41803, 35.489022)"><g><path d="M 20.4375 -6.046875 L 7.390625 -6.046875 L 4.8125 0 L -0.1875 0 L 11.5625 -26.109375 L 16.34375 -26.109375 L 28.125 0 L 23.046875 0 Z M 18.828125 -9.84375 L 13.90625 -21.265625 L 9.03125 -9.84375 Z M 18.828125 -9.84375 "/></g></g></g><g fill="#1b3a57" fill-opacity="1"><g transform="translate(167.122413, 35.489022)"><g><path d="M 22 -13.578125 C 23.445312 -13.109375 24.59375 -12.316406 25.4375 -11.203125 C 26.28125 -10.097656 26.703125 -8.726562 26.703125 -7.09375 C 26.703125 -4.820312 25.832031 -3.070312 24.09375 -1.84375 C 22.351562 -0.613281 19.816406 0 16.484375 0 L 3.5 0 L 3.5 -26.109375 L 15.734375 -26.109375 C 18.816406 -26.109375 21.191406 -25.503906 22.859375 -24.296875 C 24.523438 -23.085938 25.359375 -21.425781 25.359375 -19.3125 C 25.359375 -18.019531 25.0625 -16.875 24.46875 -15.875 C 23.875 -14.882812 23.050781 -14.117188 22 -13.578125 Z M 8.359375 -22.296875 L 8.359375 -15.109375 L 15.21875 -15.109375 C 16.90625 -15.109375 18.203125 -15.410156 19.109375 -16.015625 C 20.015625 -16.628906 20.46875 -17.519531 20.46875 -18.6875 C 20.46875 -19.875 20.015625 -20.769531 19.109375 -21.375 C 18.203125 -21.988281 16.90625 -22.296875 15.21875 -22.296875 Z M 16.1875 -3.796875 C 19.9375 -3.796875 21.8125 -5.054688 21.8125 -7.578125 C 21.8125 -10.085938 19.9375 -11.34375 16.1875 -11.34375 L 8.359375 -11.34375 L 8.359375 -3.796875 Z M 16.1875 -3.796875 "/></g></g></g><g fill="#1b3a57" fill-opacity="1"><g transform="translate(205.274309, 35.489022)"><g><path d="M 23.09375 -4.0625 L 23.09375 0 L 3.5 0 L 3.5 -26.109375 L 22.5625 -26.109375 L 22.5625 -22.046875 L 8.359375 -22.046875 L 8.359375 -15.25 L 20.953125 -15.25 L 20.953125 -11.265625 L 8.359375 -11.265625 L 8.359375 -4.0625 Z M 23.09375 -4.0625 "/></g></g></g><g fill="#1b3a57" fill-opacity="1"><g transform="translate(240.032701, 35.489022)"><g><path d="M 20.59375 0 L 15.25 -7.640625 C 15.03125 -7.617188 14.695312 -7.609375 14.25 -7.609375 L 8.359375 -7.609375 L 8.359375 0 L 3.5 0 L 3.5 -26.109375 L 14.25 -26.109375 C 16.507812 -26.109375 18.476562 -25.734375 20.15625 -24.984375 C 21.832031 -24.242188 23.117188 -23.175781 24.015625 -21.78125 C 24.910156 -20.382812 25.359375 -18.734375 25.359375 -16.828125 C 25.359375 -14.859375 24.878906 -13.164062 23.921875 -11.75 C 22.960938 -10.332031 21.585938 -9.273438 19.796875 -8.578125 L 25.8125 0 Z M 20.46875 -16.828125 C 20.46875 -18.484375 19.921875 -19.757812 18.828125 -20.65625 C 17.734375 -21.550781 16.132812 -22 14.03125 -22 L 8.359375 -22 L 8.359375 -11.59375 L 14.03125 -11.59375 C 16.132812 -11.59375 17.734375 -12.046875 18.828125 -12.953125 C 19.921875 -13.867188 20.46875 -15.160156 20.46875 -16.828125 Z M 20.46875 -16.828125 "/></g></g></g></g></g></svg>